<?xml version="1.0" encoding="UTF-8"?>
<svg width="20px" height="13px" viewBox="0 0 20 13" version="1.1" xmlns="http://www.w3.org/2000/svg" xmlns:xlink="http://www.w3.org/1999/xlink">
    <title>Battery_Charging</title>
    <g id="Page-1" stroke="none" stroke-width="1" fill="none" fill-rule="evenodd">
        <g id="Battery_Charging" transform="translate(-0, 0)" fill="#0D0E0E" fill-rule="nonzero">
            <path d="M15.44,13 L2,13 C0.8954305,13 0,12.1045695 0,11 L0,2 C0,0.8954305 0.8954305,0 2,0 L15.44,0 C16.5445695,0 17.44,0.8954305 17.44,2 L17.44,3 L18.37,3 C19.1984271,3 19.87,3.67157288 19.87,4.5 L19.87,8.5 C19.87,9.32842712 19.1984271,10 18.37,10 L17.44,10 L17.44,11 C17.44,12.1045695 16.5445695,13 15.44,13 Z M2,1 C1.44771525,1 1,1.44771525 1,2 L1,11 C1,11.5522847 1.44771525,12 2,12 L15.44,12 C15.9922847,12 16.44,11.5522847 16.44,11 L16.44,9.75 C16.441099,9.3362425 16.7762425,9.00109896 17.19,9 L18.37,9 C18.6461424,9 18.87,8.77614237 18.87,8.5 L18.87,4.5 C18.87,4.22385763 18.6461424,4 18.37,4 L17.19,4 C16.7762425,3.99890104 16.441099,3.6637575 16.44,3.25 L16.44,2 C16.44,1.44771525 15.9922847,1 15.44,1 L2,1 Z" id="Shape"></path>
            <path d="M11.109,5.691 L9.826,5.691 C9.79010011,5.69019735 9.75685189,5.67192248 9.73693324,5.6420445 C9.71701459,5.61216653 9.71293326,5.57444707 9.726,5.541 L10.381,3.872 C10.4109845,3.79492408 10.4010767,3.70802434 10.354512,3.63967605 C10.3079472,3.57132777 10.2307023,3.53030393 10.148,3.52999982 L7.209,3.52999982 C7.10704888,3.52987716 7.01540944,3.59216024 6.978,3.687 L6.227,5.54 C6.21351323,5.57355819 6.2173842,5.61160183 6.23735372,5.64175581 C6.25732325,5.6719098 6.29083948,5.69032082 6.327,5.691 L7.764,5.691 C7.79839383,5.69243406 7.83013306,5.70988637 7.84976821,5.73816097 C7.86940335,5.76643557 7.87466994,5.80227166 7.864,5.835 L7.088,9.365 C7.0808279,9.40064358 7.09712015,9.43690207 7.12853361,9.45520775 C7.15994707,9.47351344 7.19952507,9.46981244 7.227,9.446 L11.174,5.885 C11.2096479,5.85642293 11.2236908,5.80864646 11.2091759,5.76532508 C11.194661,5.72200369 11.1546689,5.69233173 11.109,5.691 Z" id="Path"></path>
        </g>
    </g>
</svg>