<?xml version="1.0" encoding="UTF-8"?>
<svg width="21px" height="13px" viewBox="0 0 21 13" version="1.1" xmlns="http://www.w3.org/2000/svg" xmlns:xlink="http://www.w3.org/1999/xlink">
    <title>Battery_half</title>
    <g id="Page-1" stroke="none" stroke-width="1" fill="none" fill-rule="evenodd">
        <g id="Battery_half" transform="translate(0.74, 0)" fill="#0D0E0E" fill-rule="nonzero">
            <path d="M15.44,13 L2,13 C0.8954305,13 0,12.1045695 0,11 L0,2 C0,0.8954305 0.8954305,0 2,0 L15.44,0 C16.5445695,0 17.44,0.8954305 17.44,2 L17.44,3 L18.37,3 C19.1984271,3 19.87,3.67157288 19.87,4.5 L19.87,8.5 C19.87,9.32842712 19.1984271,10 18.37,10 L17.44,10 L17.44,11 C17.44,12.1045695 16.5445695,13 15.44,13 Z M2,1 C1.44771525,1 1,1.44771525 1,2 L1,11 C1,11.5522847 1.44771525,12 2,12 L15.44,12 C15.9922847,12 16.44,11.5522847 16.44,11 L16.44,9.75 C16.4405509,9.33601483 16.7760148,9.00055088 17.19,9 L18.37,9 C18.6461424,9 18.87,8.77614237 18.87,8.5 L18.87,4.5 C18.87,4.22385763 18.6461424,4 18.37,4 L17.19,4 C16.7760148,3.99944912 16.4405509,3.66398517 16.44,3.25 L16.44,2 C16.44,1.44771525 15.9922847,1 15.44,1 L2,1 Z" id="Shape"></path>
            <rect id="Rectangle" x="1.998" y="1.999" width="8" height="8.998" rx="1"></rect>
        </g>
    </g>
</svg>