<?xml version="1.0" encoding="UTF-8"?>
<svg width="20px" height="13px" viewBox="0 0 20 13" version="1.1" xmlns="http://www.w3.org/2000/svg" xmlns:xlink="http://www.w3.org/1999/xlink">
    <title>Wi-Fi_On</title>
    <g id="Page-1" stroke="none" stroke-width="1" fill="none" fill-rule="evenodd">
        <g id="Wi-Fi_On" fill="#0D0E0E" fill-rule="nonzero">
            <path d="M0.84202,5.06920246 C3.15013622,2.48617132 6.4479154,1.00670769 9.9119316,1.00022042 C13.3759478,0.993733137 16.6792452,2.46083451 18.99702,5.03520246 C19.43302,5.51120246 20.13802,4.80220246 19.70402,4.32820246 C17.1986701,1.56602447 13.6410942,-0.00645919234 9.9119705,0 C6.18284682,0.00649907891 2.63075656,1.59133537 0.13502,4.36220246 C-0.29698,4.83720246 0.40802,5.54620246 0.84202,5.06920246 L0.84202,5.06920246 Z" id="Path"></path>
            <path d="M3.57402,7.46120246 C5.20220703,5.68135606 7.50202325,4.66566467 9.91424741,4.66110291 C12.3264716,4.65654114 14.6301129,5.66352691 16.26502,7.43720246 C16.70202,7.91220246 17.40802,7.20320246 16.97202,6.73020246 C15.1481382,4.77102963 12.5905139,3.66025172 9.91378411,3.66479197 C7.23705431,3.66936012 4.68322462,4.78883467 2.86602,6.75420246 C2.43302,7.22820246 3.13802,7.93820246 3.57402,7.46120246 L3.57402,7.46120246 Z" id="Path"></path>
            <path d="M6.62002,9.78420246 C7.4650595,8.85564773 8.66164663,8.32528318 9.9171543,8.32281021 C11.172662,8.32033724 12.3713291,8.84598387 13.22002,9.77120246 C13.65802,10.2452025 14.36302,9.53620246 13.92702,9.06420246 C12.8895019,7.95321875 11.4367963,7.32359126 9.91669026,7.3260496 C8.39658417,7.32852236 6.9459287,7.96285898 5.91202,9.07720246 C5.47802,9.55120246 6.18302,10.2602025 6.61902,9.78420246 L6.62002,9.78420246 Z" id="Path"></path>
            <circle id="Oval" cx="9.91902" cy="11.4642025" r="1.12"></circle>
        </g>
    </g>
</svg>